<?xml version="1.0" encoding="UTF-8"?>
<svg id="Ebene_1" data-name="Ebene 1" xmlns="http://www.w3.org/2000/svg" viewBox="0 0 939.52 426.43">
  <polygon points="350.47 168.8 350.47 101.17 175.24 0 0 101.17 0 303.52 175.24 404.69 243.07 365.53 348.54 426.43 460.58 361.74 460.58 232.37 350.47 168.8" fill="#0f3c65"/>
  <path d="M97.51,296.11c-13.01-10.14.91-27.83,8.78-40.84,5.76-9.01,12.54-19.56,17.78-27.82,4.01-6.82,9.46-13.83,9.03-22.01-.8-7.24-4.55-12.27-8.83-19.46-7.72-12.65-19.9-29.96-26.3-42.66-4.9-10.5-5.54-19.29,3.82-24.57,11.11-5.83,25.48-5.68,38.34-4.18,11.83,1.31,20.12,6.84,26.94,16.34,3.18,3.87,6.83,9.57,11.58,9.83,6.93-.1,11.44-10.09,16.22-14.77,5.54-6.45,13.51-10.14,21.91-11.25,12.91-1.73,32.36-2.02,41.61,7.73,8.09,10.88-5.29,27.71-11.97,39.07-4.47,7.07-9.45,14.93-13.65,21.61-7.22,11.92-14.67,21.07-7.06,33.97,10.4,18.44,24.67,36.69,35.04,55.73,4.24,9.04,5.75,16.01-.1,22-11.28,9.36-32.68,8.51-47.03,5.83-10.27-1.89-17.83-9.14-23.34-17.61-3.33-4.39-6.21-86.32-11.37-87.03-5.15-.37-9.06,80.82-12.2,85-5.37,8.12-12.05,16.3-21.91,18.87-14.5,3.67-34.92,4.21-47.18-3.71l-.11-.08Z" fill="#94cdff"/>
  <g>
    <path d="M589.3,317.29v44.34h-13.31v-43.83c0-11.88-6.96-17.2-16.08-17.2-10.14,0-17.51,5.43-17.51,18.33v42.7h-13.31v-43.83c0-11.88-6.35-17.2-15.46-17.2-10.14,0-17.82,5.43-17.82,18.33v42.7h-13.31v-71.68h12.9v9.42c4.3-6.55,11.98-10.44,21.91-10.44s17.92,4.1,21.71,10.96c4.81-6.96,13.42-10.96,23.55-10.96,16.49,0,26.73,9.73,26.73,28.37Z" fill="#0f3c65"/>
    <path d="M671.02,321.9v39.73h-13.31v-18.43h-37.27v18.43h-13.11v-39.73c0-21.5,12.8-32.97,31.85-32.97s31.85,11.47,31.85,32.97ZM657.71,332.03v-11.37c0-13.62-7.27-20.07-18.64-20.07s-18.64,6.45-18.64,20.07v11.37h37.27Z" fill="#0f3c65"/>
    <path d="M744.96,354.77c-6.45,5.02-17.1,7.89-28.77,7.89-21.2,0-32.15-8.81-32.15-20.89,0-8.19,5.02-14.13,12.08-16.79-5.63-2.97-9.01-8.6-9.01-15.36,0-11.06,9.83-20.69,30.62-20.69,9.11,0,18.13,2.05,24.47,5.32l-3.79,10.55c-6.45-3.38-13.21-4.71-20.17-4.71-12.08,0-17.72,4.3-17.72,10.34s4.4,9.42,12.9,9.42h18.94v11.06h-19.66c-9.42,0-15.26,3.17-15.26,9.93,0,6.35,5.94,10.65,19.35,10.65,9.01,0,18.02-2.56,23.86-6.96l4.3,10.24Z" fill="#0f3c65"/>
    <path d="M803.02,361.63l-14.64-20.99c-.92.1-1.84.1-2.76.1h-16.18v20.89h-13.31v-71.68h29.49c18.84,0,30.52,9.63,30.52,25.5,0,10.85-5.53,18.84-15.26,22.63l16.49,23.55h-14.34ZM785,301.21h-15.57v28.57h15.57c11.67,0,17.72-5.32,17.72-14.34s-6.04-14.23-17.72-14.23Z" fill="#0f3c65"/>
    <path d="M851.97,301.11v49.36h13.21v11.16h-39.63v-11.16h13.21v-49.36h-13.21v-11.16h39.63v11.16h-13.21Z" fill="#0f3c65"/>
    <path d="M924.16,361.63l-19.46-27.24-19.25,27.24h-15.16l26.62-36.56-25.19-35.12h15.05l18.33,25.5,18.12-25.5h14.44l-25.09,34.61,26.93,37.07h-15.36Z" fill="#0f3c65"/>
  </g>
  <polygon points="453.3 55.33 544.88 108.2 544.88 213.95 453.3 266.83 361.72 213.95 361.72 108.2 453.3 55.33" fill="#94cdff" stroke="#0f3c65" stroke-miterlimit="10" stroke-width="24.27"/>
  <g>
    <path d="M484.09,401.81v2.27h5.92v2.19h-5.85v17.03h-2.59v-17.03h-3.44v-2.19h3.44v-2.38c0-3.44,2.05-5.7,5.81-5.7,1.42,0,2.89.4,3.84,1.21l-.88,1.94c-.73-.62-1.75-.95-2.85-.95-2.23,0-3.4,1.24-3.4,3.62Z" fill="#0f3c65"/>
    <path d="M515.37,404.08v19.22h-2.49v-3.51c-1.35,2.34-3.84,3.69-6.91,3.69-4.9,0-8.11-2.74-8.11-8.26v-11.15h2.59v10.89c0,4.09,2.12,6.18,5.77,6.18,4.02,0,6.54-2.59,6.54-6.98v-10.09h2.59ZM501.81,398.71c0-.88.69-1.57,1.57-1.57s1.57.69,1.57,1.57-.73,1.57-1.57,1.57-1.57-.66-1.57-1.57ZM508.32,398.71c0-.88.73-1.57,1.57-1.57s1.57.69,1.57,1.57-.69,1.57-1.57,1.57-1.57-.66-1.57-1.57Z" fill="#0f3c65"/>
    <path d="M536.86,403.93v2.52c-.22,0-.44-.04-.62-.04-4.02,0-6.47,2.56-6.47,7.09v9.79h-2.59v-19.22h2.48v3.76c1.21-2.56,3.66-3.91,7.2-3.91Z" fill="#0f3c65"/>
    <path d="M592.19,412.15v11.15h-2.59v-10.89c0-4.06-2.05-6.14-5.52-6.14-3.95,0-6.43,2.56-6.43,6.94v10.09h-2.59v-10.89c0-4.06-2.05-6.14-5.55-6.14-3.91,0-6.43,2.56-6.43,6.94v10.09h-2.59v-19.22h2.48v3.51c1.35-2.3,3.84-3.66,7.05-3.66s5.66,1.35,6.83,4.06c1.39-2.48,4.13-4.06,7.6-4.06,4.68,0,7.75,2.71,7.75,8.22Z" fill="#0f3c65"/>
    <path d="M618.29,411.39v11.91h-2.48v-3c-1.17,1.97-3.44,3.18-6.62,3.18-4.35,0-7.02-2.27-7.02-5.59,0-2.96,1.9-5.45,7.42-5.45h6.1v-1.17c0-3.29-1.86-5.08-5.45-5.08-2.48,0-4.82.88-6.39,2.27l-1.17-1.94c1.94-1.64,4.79-2.59,7.82-2.59,4.97,0,7.78,2.49,7.78,7.46ZM615.69,417.53v-3.14h-6.03c-3.73,0-4.93,1.46-4.93,3.44,0,2.23,1.79,3.62,4.86,3.62s5.08-1.39,6.1-3.91Z" fill="#0f3c65"/>
    <path d="M646.69,414.49h-16.08c.29,4.02,3.36,6.69,7.57,6.69,2.34,0,4.42-.84,5.88-2.52l1.46,1.68c-1.72,2.05-4.38,3.14-7.42,3.14-5.99,0-10.09-4.09-10.09-9.79s3.98-9.76,9.39-9.76,9.32,3.98,9.32,9.76c0,.22-.04.51-.04.8ZM630.61,412.56h13.63c-.33-3.76-3.07-6.4-6.83-6.4s-6.47,2.63-6.8,6.4Z" fill="#0f3c65"/>
    <path d="M666.24,403.93v2.52c-.22,0-.44-.04-.62-.04-4.02,0-6.47,2.56-6.47,7.09v9.79h-2.59v-19.22h2.48v3.76c1.21-2.56,3.66-3.91,7.2-3.91Z" fill="#0f3c65"/>
    <path d="M690.4,397.72h10.42c8.19,0,13.71,5.26,13.71,12.79s-5.52,12.79-13.71,12.79h-10.42v-25.58ZM700.67,420.96c6.8,0,11.18-4.31,11.18-10.45s-4.39-10.45-11.18-10.45h-7.57v20.9h7.57Z" fill="#0f3c65"/>
    <path d="M741.89,404.08v19.22h-2.49v-3.51c-1.35,2.34-3.84,3.69-6.91,3.69-4.9,0-8.11-2.74-8.11-8.26v-11.15h2.59v10.89c0,4.09,2.12,6.18,5.77,6.18,4.02,0,6.54-2.59,6.54-6.98v-10.09h2.59Z" fill="#0f3c65"/>
    <path d="M763.38,403.93v2.52c-.22,0-.44-.04-.62-.04-4.02,0-6.47,2.56-6.47,7.09v9.79h-2.59v-19.22h2.48v3.76c1.21-2.56,3.66-3.91,7.2-3.91Z" fill="#0f3c65"/>
    <path d="M770.47,413.69c0-5.74,4.17-9.76,9.9-9.76,3.25,0,5.99,1.28,7.53,3.8l-1.94,1.32c-1.32-1.94-3.36-2.85-5.59-2.85-4.2,0-7.27,3-7.27,7.49s3.07,7.49,7.27,7.49c2.23,0,4.28-.88,5.59-2.81l1.94,1.32c-1.54,2.49-4.28,3.8-7.53,3.8-5.74,0-9.9-4.06-9.9-9.79Z" fill="#0f3c65"/>
    <path d="M814.91,412.15v11.15h-2.59v-10.89c0-4.06-2.12-6.14-5.77-6.14-4.13,0-6.72,2.56-6.72,6.94v10.09h-2.59v-27.12h2.59v11.26c1.42-2.23,3.95-3.51,7.2-3.51,4.68,0,7.89,2.71,7.89,8.22Z" fill="#0f3c65"/>
    <path d="M845.98,413.69c0,5.81-4.09,9.79-9.58,9.79-3.18,0-5.85-1.39-7.42-3.98v3.8h-2.48v-27.12h2.59v11.55c1.61-2.48,4.24-3.8,7.31-3.8,5.48,0,9.58,3.95,9.58,9.76ZM843.38,413.69c0-4.5-3.11-7.49-7.16-7.49s-7.16,3-7.16,7.49,3.07,7.49,7.16,7.49,7.16-3,7.16-7.49Z" fill="#0f3c65"/>
    <path d="M855.81,396.18h2.59v27.12h-2.59v-27.12Z" fill="#0f3c65"/>
    <path d="M869.59,398.01c0-.99.84-1.83,1.9-1.83s1.9.8,1.9,1.79c0,1.06-.8,1.9-1.9,1.9s-1.9-.84-1.9-1.86ZM870.17,404.08h2.59v19.22h-2.59v-19.22Z" fill="#0f3c65"/>
    <path d="M882.6,413.69c0-5.74,4.17-9.76,9.9-9.76,3.25,0,5.99,1.28,7.53,3.8l-1.94,1.32c-1.32-1.94-3.36-2.85-5.59-2.85-4.2,0-7.27,3-7.27,7.49s3.07,7.49,7.27,7.49c2.23,0,4.28-.88,5.59-2.81l1.94,1.32c-1.54,2.49-4.28,3.8-7.53,3.8-5.74,0-9.9-4.06-9.9-9.79Z" fill="#0f3c65"/>
    <path d="M916.48,413.65l-4.53,4.17v5.48h-2.59v-27.12h2.59v18.38l11.47-10.49h3.22l-8.22,7.86,8.99,11.37h-3.18l-7.75-9.65Z" fill="#0f3c65"/>
    <path d="M934.53,421.47c0-1.13.88-1.97,1.94-1.97s1.97.84,1.97,1.97-.91,2.01-1.97,2.01-1.94-.88-1.94-2.01Z" fill="#0f3c65"/>
  </g>
</svg>