<?xml version="1.0" encoding="UTF-8"?>
<svg xmlns="http://www.w3.org/2000/svg" viewBox="0 0 557.02 426.43">
  <polygon points="350.47 168.8 350.47 101.17 175.24 0 0 101.17 0 303.52 175.24 404.69 243.07 365.53 348.54 426.43 460.58 361.74 460.58 232.37 350.47 168.8" fill="#0f3c65"/>
  <path d="M97.51,296.11c-13.01-10.14.91-27.83,8.78-40.84,5.76-9.01,12.54-19.56,17.78-27.82,4.01-6.82,9.46-13.83,9.03-22.01-.8-7.24-4.55-12.27-8.83-19.46-7.72-12.65-19.9-29.96-26.3-42.66-4.9-10.5-5.54-19.29,3.82-24.57,11.11-5.83,25.48-5.68,38.34-4.18,11.83,1.31,20.12,6.84,26.94,16.34,3.18,3.87,6.83,9.57,11.58,9.83,6.93-.1,11.44-10.09,16.22-14.77,5.54-6.45,13.51-10.14,21.91-11.25,12.91-1.73,32.36-2.02,41.61,7.73,8.09,10.88-5.29,27.71-11.97,39.07-4.47,7.07-9.45,14.93-13.65,21.61-7.22,11.92-14.67,21.07-7.06,33.97,10.4,18.44,24.67,36.69,35.04,55.73,4.24,9.04,5.75,16.01-.1,22-11.28,9.36-32.68,8.51-47.03,5.83-10.27-1.89-17.83-9.14-23.34-17.61-3.33-4.39-6.21-86.32-11.37-87.03-5.15-.37-9.06,80.82-12.2,85-5.37,8.12-12.05,16.3-21.91,18.87-14.5,3.67-34.92,4.21-47.18-3.71l-.11-.08Z" fill="#94cdff"/>
  <polygon points="453.3 55.33 544.88 108.2 544.88 213.95 453.3 266.83 361.72 213.95 361.72 108.2 453.3 55.33" fill="#94cdff" stroke="#0f3c65" stroke-miterlimit="10" stroke-width="24.27"/>
</svg>
